<svg width="144" height="115" viewBox="0 0 144 115" fill="none" xmlns="http://www.w3.org/2000/svg">
<path d="M3.83735 99.5699C3.0938 99.2046 2.19492 99.5112 1.82965 100.255C1.46437 100.998 1.77103 101.897 2.51457 102.262L3.83735 99.5699ZM83.4402 44.1384L82.6895 42.8398L82.6892 42.84L83.4402 44.1384ZM94.7677 100.328L95.06 98.8563L95.0598 98.8563L94.7677 100.328ZM135.266 1.34906C134.88 0.616107 133.973 0.334922 133.24 0.721016C132.507 1.10711 132.226 2.01428 132.612 2.74723L135.266 1.34906ZM5.73349 113.417C6.0497 114.183 6.92676 114.547 7.69247 114.231C8.45817 113.914 8.82256 113.037 8.50635 112.272L5.73349 113.417ZM1.99664 100.438L1.244 99.1406C0.594402 99.5174 0.323564 100.317 0.610211 101.011L1.99664 100.438ZM14.4342 94.6324C15.104 94.1449 15.2518 93.2068 14.7644 92.5369C14.2769 91.8671 13.3387 91.7193 12.6689 92.2067L14.4342 94.6324ZM3.17596 100.916C2.51457 102.262 2.5152 102.263 2.51605 102.263C2.51661 102.263 2.51767 102.264 2.51881 102.265C2.52109 102.266 2.52422 102.267 2.52821 102.269C2.5362 102.273 2.5476 102.279 2.56239 102.286C2.59197 102.3 2.63509 102.321 2.69143 102.348C2.80409 102.402 2.96964 102.48 3.18553 102.581C3.61728 102.782 4.25048 103.071 5.06474 103.428C6.69301 104.141 9.0467 105.123 11.9625 106.209C17.7897 108.378 25.8833 110.967 34.9311 112.631C52.9383 115.944 75.1891 115.671 90.6314 100.484L88.5278 98.3453C74.1694 112.466 53.2184 112.945 35.4739 109.681C26.6459 108.057 18.7262 105.526 13.0092 103.397C10.1528 102.334 7.85152 101.373 6.26791 100.68C5.47622 100.333 4.86425 100.053 4.4523 99.8616C4.24634 99.7656 4.09042 99.6916 3.98707 99.6422C3.9354 99.6174 3.89687 99.5988 3.87181 99.5866C3.85928 99.5806 3.85012 99.5761 3.84436 99.5733C3.84148 99.5719 3.83946 99.5709 3.83829 99.5703C3.8377 99.57 3.83747 99.5699 3.83718 99.5698C3.83716 99.5698 3.83735 99.5699 3.17596 100.916ZM90.6314 100.484C105.895 85.4731 108.39 68.8713 104.878 57.033C103.132 51.1481 99.8786 46.3859 95.9105 43.6733C91.899 40.9311 87.1116 40.2835 82.6895 42.8398L84.1909 45.437C87.4414 43.558 90.9829 43.9388 94.2175 46.15C97.4955 48.3907 100.406 52.5067 102.002 57.8863C105.173 68.5768 103.065 84.0485 88.5278 98.3453L90.6314 100.484ZM82.6892 42.84C78.4567 45.2882 75.1858 49.8737 73.1006 55.2799C71.0062 60.71 70.045 67.1212 70.5537 73.4365C71.5724 86.0852 78.5616 98.6388 94.4755 101.799L95.0598 98.8563C80.8334 96.0314 74.4888 84.927 73.544 73.1957C73.0708 67.321 73.9703 61.3616 75.8996 56.3595C77.8381 51.3336 80.7538 47.4252 84.1913 45.4368L82.6892 42.84ZM94.4753 101.799C102.577 103.409 110.659 100.487 117.753 94.7575C124.845 89.028 131.07 80.4072 135.582 70.2931C144.598 50.0861 146.946 23.5211 135.266 1.34906L132.612 2.74723C143.757 23.9053 141.586 49.4737 132.842 69.0707C128.476 78.8586 122.511 87.0575 115.867 92.4238C109.225 97.7896 102.024 100.24 95.06 98.8563L94.4753 101.799ZM8.50635 112.272L3.38307 99.8656L0.610211 101.011L5.73349 113.417L8.50635 112.272ZM1.99664 100.438C2.74928 101.736 2.74933 101.736 2.74942 101.736C2.7495 101.736 2.74962 101.735 2.74977 101.735C2.75008 101.735 2.75053 101.735 2.75112 101.735C2.75231 101.734 2.75406 101.733 2.75637 101.732C2.76099 101.729 2.76785 101.725 2.77688 101.72C2.79494 101.709 2.82168 101.694 2.85661 101.673C2.92647 101.633 3.02906 101.573 3.1603 101.497C3.42276 101.344 3.79987 101.124 4.25902 100.855C5.17711 100.317 6.42411 99.5842 7.73874 98.8018C10.3321 97.2585 13.2943 95.4619 14.4342 94.6324L12.6689 92.2067C11.6689 92.9345 8.8536 94.6473 6.20449 96.2239C4.89789 97.0015 3.6574 97.7309 2.74331 98.266C2.28637 98.5335 1.91122 98.7524 1.65045 98.9043C1.52006 98.9802 1.41828 99.0394 1.34918 99.0795C1.31463 99.0996 1.28825 99.1149 1.27055 99.1252C1.2617 99.1304 1.25502 99.1342 1.25058 99.1368C1.24836 99.1381 1.24669 99.1391 1.24559 99.1397C1.24504 99.14 1.24464 99.1403 1.24437 99.1404C1.24424 99.1405 1.24415 99.1406 1.24408 99.1406C1.24402 99.1406 1.244 99.1406 1.99664 100.438Z" fill="#FFB800"/>
</svg>
