<svg width="122" height="59" viewBox="0 0 122 59" fill="none" xmlns="http://www.w3.org/2000/svg">
<path d="M34.802 51.348C33.4293 51.348 32.1533 51.0967 30.974 50.594C29.814 50.0913 28.8087 49.3953 27.958 48.506C27.1267 47.5973 26.5177 46.5437 26.131 45.345L29.408 43.924C29.93 45.1613 30.684 46.1377 31.67 46.853C32.656 47.549 33.7677 47.897 35.005 47.897C35.701 47.897 36.3003 47.7907 36.803 47.578C37.325 47.346 37.7213 47.0367 37.992 46.65C38.282 46.2633 38.427 45.7993 38.427 45.258C38.427 44.62 38.2337 44.098 37.847 43.692C37.4797 43.2667 36.919 42.938 36.165 42.706L32.018 41.372C30.336 40.85 29.0697 40.067 28.219 39.023C27.3683 37.979 26.943 36.7513 26.943 35.34C26.943 34.1027 27.2427 33.0103 27.842 32.063C28.4607 31.1157 29.3113 30.381 30.394 29.859C31.496 29.3177 32.7527 29.047 34.164 29.047C35.4593 29.047 36.6483 29.279 37.731 29.743C38.8137 30.1877 39.7417 30.816 40.515 31.628C41.3077 32.4207 41.8973 33.3583 42.284 34.441L39.036 35.891C38.6107 34.8083 37.9727 33.977 37.122 33.397C36.2713 32.7977 35.2853 32.498 34.164 32.498C33.5067 32.498 32.9267 32.614 32.424 32.846C31.9213 33.0587 31.525 33.368 31.235 33.774C30.9643 34.1607 30.829 34.6247 30.829 35.166C30.829 35.7653 31.0223 36.297 31.409 36.761C31.7957 37.2057 32.3853 37.5537 33.178 37.805L37.151 39.052C38.8717 39.6127 40.1573 40.386 41.008 41.372C41.878 42.358 42.313 43.576 42.313 45.026C42.313 46.2633 41.994 47.3557 41.356 48.303C40.718 49.2503 39.8383 49.9947 38.717 50.536C37.5957 51.0773 36.2907 51.348 34.802 51.348ZM44.9654 51V35.224H48.7644V51H44.9654ZM44.9654 33.455V29.395H48.7644V33.455H44.9654ZM59.348 57.38C58.1687 57.38 57.0763 57.1867 56.071 56.8C55.0657 56.4133 54.1957 55.872 53.461 55.176C52.7457 54.4993 52.2237 53.697 51.895 52.769L55.433 51.435C55.665 52.1697 56.1193 52.7593 56.796 53.204C57.492 53.668 58.3427 53.9 59.348 53.9C60.1213 53.9 60.798 53.755 61.378 53.465C61.9773 53.175 62.4413 52.7497 62.77 52.189C63.0987 51.6477 63.263 50.9903 63.263 50.217V46.621L63.988 47.491C63.4467 48.4383 62.7217 49.1537 61.813 49.637C60.9043 50.1203 59.87 50.362 58.71 50.362C57.2407 50.362 55.926 50.0237 54.766 49.347C53.606 48.6703 52.6973 47.7423 52.04 46.563C51.3827 45.3837 51.054 44.0593 51.054 42.59C51.054 41.1013 51.3827 39.777 52.04 38.617C52.6973 37.457 53.5963 36.5483 54.737 35.891C55.8777 35.2143 57.173 34.876 58.623 34.876C59.8023 34.876 60.8367 35.1273 61.726 35.63C62.6347 36.1133 63.3887 36.819 63.988 37.747L63.466 38.704V35.224H67.062V50.217C67.062 51.5897 66.7237 52.8173 66.047 53.9C65.3897 54.9827 64.481 55.8333 63.321 56.452C62.1803 57.0707 60.856 57.38 59.348 57.38ZM59.174 46.853C59.986 46.853 60.6917 46.679 61.291 46.331C61.9097 45.9637 62.393 45.461 62.741 44.823C63.089 44.185 63.263 43.4503 63.263 42.619C63.263 41.807 63.0793 41.082 62.712 40.444C62.364 39.7867 61.8807 39.2743 61.262 38.907C60.6627 38.5397 59.9667 38.356 59.174 38.356C58.3813 38.356 57.666 38.5397 57.028 38.907C56.39 39.2743 55.8873 39.7867 55.52 40.444C55.172 41.082 54.998 41.807 54.998 42.619C54.998 43.431 55.172 44.156 55.52 44.794C55.8873 45.432 56.3803 45.9347 56.999 46.302C57.637 46.6693 58.362 46.853 59.174 46.853ZM70.03 51V35.224H73.597V38.878L73.191 38.269C73.481 37.1283 74.061 36.2777 74.931 35.717C75.801 35.1563 76.8256 34.876 78.005 34.876C79.3003 34.876 80.441 35.2143 81.427 35.891C82.413 36.5677 83.051 37.457 83.341 38.559L82.268 38.646C82.7513 37.3893 83.4763 36.4517 84.443 35.833C85.4096 35.195 86.5213 34.876 87.778 34.876C88.8993 34.876 89.895 35.1273 90.765 35.63C91.6543 36.1327 92.3503 36.8383 92.853 37.747C93.3556 38.6363 93.607 39.6707 93.607 40.85V51H89.808V41.749C89.808 41.053 89.6823 40.4537 89.431 39.951C89.1796 39.4483 88.8316 39.0617 88.387 38.791C87.9423 38.501 87.401 38.356 86.763 38.356C86.1636 38.356 85.632 38.501 85.168 38.791C84.704 39.0617 84.3463 39.4483 84.095 39.951C83.8436 40.4537 83.718 41.053 83.718 41.749V51H79.919V41.749C79.919 41.053 79.7933 40.4537 79.542 39.951C79.2906 39.4483 78.933 39.0617 78.469 38.791C78.0243 38.501 77.4926 38.356 76.874 38.356C76.2746 38.356 75.743 38.501 75.279 38.791C74.815 39.0617 74.4573 39.4483 74.206 39.951C73.9546 40.4537 73.829 41.053 73.829 41.749V51H70.03ZM101.026 51.348C99.924 51.348 98.967 51.1643 98.155 50.797C97.343 50.4297 96.7147 49.9077 96.27 49.231C95.8253 48.535 95.603 47.7327 95.603 46.824C95.603 45.954 95.7963 45.1807 96.183 44.504C96.5697 43.808 97.169 43.228 97.981 42.764C98.793 42.3 99.8177 41.9713 101.055 41.778L106.217 40.937V43.837L101.78 44.591C101.026 44.7263 100.465 44.968 100.098 45.316C99.7307 45.664 99.547 46.1183 99.547 46.679C99.547 47.2203 99.75 47.6553 100.156 47.984C100.581 48.2933 101.103 48.448 101.722 48.448C102.515 48.448 103.211 48.2837 103.81 47.955C104.429 47.607 104.902 47.1333 105.231 46.534C105.579 45.9347 105.753 45.2773 105.753 44.562V40.502C105.753 39.8253 105.482 39.2647 104.941 38.82C104.419 38.356 103.723 38.124 102.853 38.124C102.041 38.124 101.316 38.3463 100.678 38.791C100.059 39.2163 99.605 39.7867 99.315 40.502L96.212 38.994C96.5213 38.1627 97.0047 37.4473 97.662 36.848C98.3387 36.2293 99.1313 35.746 100.04 35.398C100.949 35.05 101.935 34.876 102.998 34.876C104.293 34.876 105.434 35.1177 106.42 35.601C107.406 36.065 108.17 36.7223 108.711 37.573C109.272 38.4043 109.552 39.3807 109.552 40.502V51H105.956V48.303L106.768 48.245C106.362 48.9217 105.879 49.492 105.318 49.956C104.757 50.4007 104.119 50.7487 103.404 51C102.689 51.232 101.896 51.348 101.026 51.348ZM114.281 51V46.94H118.109V51H114.281Z" fill="#03071E" fill-opacity="0.8"/>
<g clip-path="url(#clip0_3130_670)">
<path d="M34.8649 20.5722C32.8749 22.787 30.8877 25.0475 28.8594 27.2371C28.5227 27.5973 27.9897 27.905 27.5093 28.0165C26.198 28.371 24.8607 28.5983 23.5542 28.8789C21.8486 29.2478 20.115 29.6091 18.2187 30.017C18.6515 30.6436 18.4338 31.4562 19.2361 31.6562C20.5606 31.981 21.2996 32.8097 21.3438 34.158C21.3487 34.6999 21.5812 34.8974 22.0493 34.8876C22.9117 34.8634 23.7591 34.8953 24.5955 34.744C25.7967 31.4092 25.9845 30.3396 28.8594 28.0165C37.5195 25.9085 28.8594 28.0165 37.5195 25.9085C37.7332 25.3351 37.8799 24.5635 37.6563 24.0531C37.0319 22.6845 36.1739 21.4034 35.3739 20.0178C35.1662 20.2324 35.0193 20.3883 34.8649 20.5722Z" fill="#FFB800"/>
<path d="M38.1606 15.6141C38.1428 15.6243 38.1353 15.6524 38.1176 15.6626C34.7204 19.5426 31.3026 23.387 27.8849 27.2314C27.7736 27.3668 27.6062 27.4871 27.4333 27.5159C25.2903 27.9478 23.1296 28.3899 20.9054 28.8451L17.1026 29.6431C16.6274 30.9123 17.0556 32.2284 17.6287 33.5082C17.693 33.6605 17.9554 33.7459 18.1441 33.8265C18.9799 34.1255 19.3211 34.7575 19.3098 35.6405C19.3038 35.9992 19.5014 36.3825 19.686 36.7023C20.2679 37.6691 20.9488 38.6024 21.4774 39.6C22.0265 40.6331 22.1027 41.7497 21.5884 42.8282C21.4245 43.1597 21.0802 43.548 20.7625 43.613C20.3457 43.7115 19.9158 43.7465 19.458 43.774C18.8627 43.8097 18.3897 43.2775 18.4838 42.7021C18.5186 42.5162 18.5356 42.3406 18.5807 42.1724C18.8966 40.5452 18.691 38.9585 18.0659 37.4245C17.9709 37.2188 17.7104 37.0139 17.504 36.9436C16.4467 36.6302 16.0085 35.9121 16.22 34.8426C16.267 34.5549 16.3011 34.2036 16.2033 33.9521C15.6507 32.7079 15.3729 31.4471 15.4503 29.9813C14.5606 30.1633 13.7064 30.3249 12.8522 30.4864C12.5803 30.5487 12.283 30.6492 12.0056 30.6199C11.7561 30.5982 11.3666 30.5388 11.2893 30.3229C11.199 30.0434 11.3049 29.8165 11.4415 29.6429C12.1423 28.7645 12.8637 27.9217 13.5851 27.0788C16.2104 24.1183 18.8357 21.1577 21.489 18.2047C21.765 17.9032 22.1886 17.6113 22.5876 17.523C27.3156 16.5224 32.0641 15.5573 36.8126 14.5922C37.0491 14.5504 37.2958 14.5264 37.5425 14.5024C38.0694 14.5535 38.4639 15.1548 38.1606 15.6141Z" fill="#FFB800"/>
</g>
<defs>
<clipPath id="clip0_3130_670">
<rect width="40" height="40" fill="white" transform="translate(0 20) rotate(-30)"/>
</clipPath>
</defs>
</svg>
